# File exported by Houdini 15.0.244.16 (www.sidefx.com)
# 275 points
# 275 vertices
# 50 primitives
# Bounds: [-25.6200275, -2.66598248, -15.6601162] to [25.5446129, 2.77333236, 15.5561647]
g 
v 25.0025482 0.0101961428 15.0050983
v 22.5054531 -1.76137173 2.23659682
v 24.9671974 -0.13121368 3.17978835
v 23.8296204 0.898916423 15.4494581
v 19.7735176 1.76504147 9.83290386
v 14.8815441 -2.66598248 -8.14074993
v 9.92946148 -0.138269648 -4.90071058
v 8.92092037 -0.0856232718 -7.37468719
v 12.2100849 -0.279777825 -9.9479599
v 15.1162624 2.30858111 -1.86963236
v 15.1125383 2.30666614 -1.86927617
v 15.8429003 -1.2185266 6.93430138
v 19.7735157 1.76503634 9.83290482
v 23.8296204 0.898916423 15.4494581
v 10.3594732 -0.522636533 14.7386818
v 10.2692146 -0.243713737 14.0679541
v 10.5869255 0.164185315 -14.9179077
v 17.9169235 -0.415188521 -15.2075939
v 12.8690252 1.36860764 -10.2043238
v 18.1951332 2.42250299 -11.4262362
v -4.53212976 0.15291959 15.0764599
v -10.8011293 -2.0869596 11.0590134
v -10.5286551 0.393960536 15.1969805
v -6.49455738 0.225828424 9.51464844
v -4.91417265 -0.289022058 9.40212345
v 12.2100849 -0.279777825 -9.9479599
v 12.8690271 1.3686074 -10.2043247
v 18.1951332 2.42250371 -11.4262342
v 19.6724606 -1.78668106 -9.36939049
v 14.8815441 -2.66598248 -8.14074993
v 7.86326265 -0.0983103141 -0.525128365
v 6.32529497 -1.0738889 -1.17961168
v 9.92946148 -0.138266355 -4.90071154
v 4.27116251 1.1632942 -3.97715592
v 4.56895733 0.226040423 -5.76848888
v 8.28849697 -0.25618571 -7.60992241
v 8.92092037 -0.0856240243 -7.37468863
v -20.5927849 -1.31865215 6.52535629
v -20.4308338 -0.345360667 5.91044998
v -15.4407768 -0.603768587 8.85509872
v -16.3517265 0.185713217 10.1016607
v -17.5123158 -0.568088412 3.67786455
v -15.0853586 0.0751992986 5.41405773
v 4.15362835 2.77333093 2.89545274
v 2.81974268 0.705892444 5.98352957
v 2.86634064 0.523037195 6.09994793
v 6.32529449 -1.07388902 -1.17961168
v 7.86326456 -0.0983089432 -0.52512759
v 11.3735943 0.909453809 3.43219161
v 11.9163046 2.09808683 5.11301327
v 8.34529686 -1.49151123 5.13996458
v -14.9942389 -0.00349057768 14.9982548
v -12.252286 -0.0678836107 9.38873959
v -16.6527672 0.977154374 12.4834213
v -15.4407759 -0.603769004 8.85509777
v -16.3517265 0.185713217 10.1016607
v -10.8011293 -2.0869596 11.0590124
v -10.5286551 0.393960536 15.1969805
v -1.644238 1.07482171 3.78567743
v -7.08423805 -0.0605963171 0.733513951
v -4.35823727 1.4230758 -0.733062208
v -1.67740333 0.694280028 0.192928359
v -4.23076582 0.258922517 4.47492552
v -6.72267818 0.12795724 3.24346852
v -4.35823727 1.4230758 -0.733062208
v -5.18918371 0.308445513 -4.54498434
v -1.41291022 -0.285601228 -5.6472683
v -1.67740548 0.694280326 0.192927584
v 0.899776399 0.369524181 -2.92858672
v 0.269884408 -0.536829829 -1.84769106
v -24.950737 0.197055712 5.40606451
v -25.0792408 -0.316963166 12.5258818
v -22.3220921 0.538945019 4.68367529
v -20.4308338 -0.34536007 5.9104495
v -20.5927868 -1.31865156 6.5253582
v 4.27116203 1.16329491 -3.97715473
v 4.15362835 2.77333188 2.89545393
v 6.32529449 -1.07388902 -1.1796118
v 0.269884229 -0.536829948 -1.84769034
v 0.89977634 0.369523853 -2.92858648
v -10.7868471 0.596327424 -0.928960979
v -10.1523523 0.372164816 -5.01095724
v -4.35823917 1.42307603 -0.733062565
v -7.08423805 -0.060595762 0.733512104
v -6.44826651 -0.880619109 -5.90375996
v -5.18918419 0.30844599 -4.54498386
v 10.5869284 0.164186075 -14.9179068
v 8.28849983 -0.256185502 -7.60992193
v 8.92092133 -0.0856234655 -7.37468815
v 5.82568932 1.71048081 -12.1506348
v 5.87275171 -1.3202318 -15.6601162
v 12.8690271 1.3686074 -10.2043247
v 12.210083 -0.279780239 -9.94795895
v 1.43827629 1.11232972 15.5561647
v 2.42687106 0.585324526 11.9325562
v 10.3594742 -0.522637725 14.7386808
v 8.42355347 0.321794063 12.4269257
v 10.2692156 -0.243714839 14.067955
v -0.0657531321 -0.283386588 -10.4113874
v 0.732206702 -0.987580776 -10.7190294
v 4.56895733 0.226038173 -5.7684927
v 4.27116156 1.16329455 -3.97715425
v 0.899776757 0.369524091 -2.92858648
v -1.41290987 -0.285601109 -5.64726734
v 10.2692137 -0.243712485 14.067956
v 8.34529686 -1.49151134 5.13996553
v 8.42355537 0.321795315 12.4269276
v 11.9163046 2.09808636 5.11301374
v 14.8007116 -0.29591462 5.69941044
v 15.8429022 -1.21852398 6.93430233
v -6.4482646 -0.880617857 -5.903759
v -10.1523542 0.372165859 -5.01095629
v -11.994978 0.460619837 -9.78835487
v -12.9287357 1.01413286 -7.89911985
v -7.69289684 0.131213427 -11.6622429
v -5.00750589 0.0204406697 -10.2814236
v -16.9178734 -0.277989268 -8.14509106
v -10.7868481 0.596327186 -0.928960621
v -12.5294266 0.181442365 0.186377063
v -12.9287348 1.0141325 -7.8991189
v -10.1523542 0.372165859 -5.01095629
v -18.382391 0.849463582 -1.30956292
v -17.5253506 0.107117273 -0.658226073
v -12.2522869 -0.0678829849 9.38874149
v -15.4407778 -0.603768408 8.85509872
v -15.0853586 0.0751992986 5.41405773
v -12.377264 -1.4113549 3.31782246
v -9.94673729 -0.0948988199 5.44875765
v -9.93989468 -0.0898338035 5.50461388
v 9.92946053 -0.138266683 -4.90071058
v 15.1125383 2.30666566 -1.86927712
v 7.86326313 -0.0983099714 -0.525128841
v 11.3735914 0.909451008 3.43218851
v -25.6200275 -2.48011065 -3.16269302
v -22.154829 0.162050724 -0.838000298
v -24.950737 0.197055712 5.40606451
v -22.322094 0.538945258 4.68367624
v -7.08424139 -0.0605950728 0.733510554
v -6.72267962 0.127959639 3.24347162
v -12.5294247 0.181442142 0.186374992
v -10.7868481 0.596327424 -0.928961098
v -9.94673634 -0.0948979035 5.4487586
v -12.3772621 -1.41135573 3.31782341
v 4.56895828 0.226038665 -5.76849031
v 0.732205987 -0.987580955 -10.7190304
v 5.82568884 1.71048176 -12.1506329
v 8.28849792 -0.256186098 -7.60992384
v 15.1162615 2.30858183 -1.86963058
v 14.8815432 -2.66598201 -8.14074898
v 19.6724586 -1.78668106 -9.36939049
v 24.8844357 1.91303134 -5.73431921
v 20.6478214 -0.262089729 -1.53478301
v 19.3962784 0.858543932 -0.637337208
v -24.997673 0.00930788927 -14.9953461
v -24.3526192 2.58952045 -6.48761559
v -23.8113537 0.174589694 -14.9127054
v -18.84939 -1.37786019 -11.0556307
v -18.5204601 -1.35912693 -9.84216881
v -17.5253544 0.107119299 -0.658225596
v -12.5294247 0.181442142 0.186377168
v -12.3772621 -1.41135395 3.31782198
v -17.5123196 -0.568089545 3.67786312
v -15.0853596 0.0751992986 5.41405773
v 5.87275314 -1.32023335 -15.6601162
v 5.82569027 1.71048069 -12.1506348
v -2.07886338 -0.669504702 -15.3347521
v 0.73220408 -0.987577319 -10.7190266
v -1.71630347 -0.429787964 -11.6486282
v -0.0657494962 -0.283387244 -10.4113874
v -7.7671628 -0.807563841 -15.4037819
v -7.69289684 0.131213427 -11.6622429
v -12.4810419 0.559541225 -14.7202291
v -11.994977 0.460619152 -9.78835392
v -17.1215134 0.327869684 -14.8360653
v -12.4810419 0.559541225 -14.7202291
v -16.9178696 -0.27798748 -8.14509201
v -18.84939 -1.37786055 -11.0556364
v -18.5204601 -1.35912693 -9.84216881
v -11.9949789 0.460620463 -9.78835106
v -12.9287357 1.01413286 -7.89911985
v 25.0011806 0.00472398009 -14.9976377
v 22.2878742 -0.285962731 -15.1429815
v 24.9487877 -0.204848439 -10.3832321
v 1.52580369 0.237514392 9.54699707
v -4.50095797 -0.871600389 8.71283054
v -4.23076534 0.258922607 4.47492504
v 2.86634064 0.523036182 6.09994841
v -1.64423966 1.07482016 3.78567767
v 2.8197422 0.705893517 5.98352861
v -24.9951305 0.0194804128 15.0097399
v -14.9942389 -0.00349057768 14.9982548
v -25.0081863 -0.0327418037 13.981142
v -16.6527672 0.977154434 12.4834194
v -9.93989658 -0.0898343474 5.50461292
v -6.49455738 0.225828052 9.51464748
v -12.252286 -0.0678843707 9.38873768
v -10.8011293 -2.0869596 11.0590124
v 19.3962803 0.858540356 -0.6373384
v 14.8007126 -0.295918137 5.69941044
v 15.1125431 2.30666828 -1.86927676
v 15.1162596 2.30858016 -1.86963212
v 11.9163046 2.09808731 5.1130147
v 11.3735924 0.909451485 3.43218899
v 19.6724606 -1.78667998 -9.36939144
v 22.2878761 -0.285963655 -15.1429815
v 24.9487877 -0.204848439 -10.3832321
v 25.5446129 2.17844987 -5.78517437
v 24.8844357 1.9130317 -5.73432016
v 18.1951332 2.42250371 -11.4262342
v 17.9169235 -0.415188521 -15.2075939
v -17.1215134 0.327869684 -14.8360653
v -23.8113537 0.174589694 -14.9127054
v -18.84939 -1.37785983 -11.0556288
v 1.43827486 1.11232924 15.5561647
v -4.53212833 0.152919635 15.0764599
v -4.91417074 -0.289023072 9.4021225
v -4.50095749 -0.871599555 8.71283245
v 1.52580333 0.237514377 9.54699802
v 2.42686987 0.585325241 11.9325533
v -17.5123158 -0.568087816 3.67786598
v -22.1548252 0.162052497 -0.837997854
v -18.3823891 0.849462152 -1.30956101
v -17.5253525 0.107118316 -0.658228099
v -22.322094 0.538944125 4.68367338
v -20.4308319 -0.345360667 5.9104495
v 25.5446129 2.17845035 -5.78517437
v 24.9671974 -0.131213889 3.17978883
v 22.5054531 -1.76137185 2.23659706
v 20.6478233 -0.2620897 -1.53478312
v 24.8844376 1.91303337 -5.73431969
v -1.644238 1.07482076 3.78567839
v -1.67740405 0.694280088 0.192927316
v 0.269883811 -0.536830008 -1.84769046
v 4.15362835 2.77333236 2.89545441
v 2.81974268 0.70589304 5.98352909
v -7.69289732 0.131213427 -11.6622429
v -7.76716185 -0.807563603 -15.4037819
v -2.07886147 -0.669505656 -15.334753
v -1.71630216 -0.429788917 -11.6486273
v -5.00750875 0.0204405989 -10.2814245
v -25.0081863 -0.0327418037 13.981142
v -16.6527653 0.977150261 12.4834175
v -25.0792408 -0.316962808 12.5258827
v -20.5927868 -1.31865323 6.52535677
v -16.3517227 0.185714945 10.1016655
v 19.3962803 0.858540654 -0.637340009
v 19.7735138 1.76503813 9.83290482
v 15.8429022 -1.21852398 6.93430233
v 14.8007116 -0.295916289 5.69941187
v 20.6478233 -0.262089193 -1.53478348
v 22.5054531 -1.76137185 2.23659754
v -24.3526192 2.58952045 -6.48761559
v -18.3823891 0.849462271 -1.30956078
v -18.5204601 -1.35912752 -9.84216881
v -16.9178696 -0.277987391 -8.1450901
v -22.1548252 0.162052497 -0.837997854
v -25.6200275 -2.48010969 -3.16269159
v 2.86633968 0.523037672 6.09994745
v 8.34529686 -1.49151099 5.13996363
v 8.42355442 0.321793586 12.4269257
v 1.52580154 0.237512663 9.54699421
v 2.42686987 0.585324585 11.9325562
v -6.49455833 0.225828901 9.51464844
v -4.50095654 -0.871600807 8.7128315
v -4.9141717 -0.289021671 9.4021244
v -9.94673824 -0.0948998854 5.44875765
v -9.93989658 -0.0898342654 5.50461483
v -6.72267818 0.127957538 3.24346828
v -4.23076487 0.258922428 4.47492599
v -1.41290927 -0.285602689 -5.64726973
v -5.0075078 0.020440612 -10.2814255
v -1.71630239 -0.429788888 -11.6486273
v -0.0657521859 -0.283389777 -10.4113913
v -5.18918514 0.308445513 -4.54498434
v -6.44826651 -0.880619109 -5.90375996
vn 0.18839553 0.96639806 -0.17487739
vn 0.18839553 0.96639806 -0.17487739
vn 0.18839553 0.96639806 -0.17487739
vn 0.18839553 0.96639806 -0.17487739
vn 0.18839553 0.96639806 -0.17487739
vn 0.195373073 0.929796219 -0.311942905
vn 0.195373073 0.929796219 -0.311942905
vn 0.195373073 0.929796219 -0.311942905
vn 0.195373073 0.929796219 -0.311942905
vn 0.195373073 0.929796219 -0.311942905
vn 0.195373073 0.929796219 -0.311942905
vn -0.214894921 0.976636052 -0.00154755975
vn -0.214894921 0.976636052 -0.00154755975
vn -0.214894921 0.976636052 -0.00154755975
vn -0.214894921 0.976636052 -0.00154755975
vn -0.214894921 0.976636052 -0.00154755975
vn -0.0827926472 0.909339428 -0.407734245
vn -0.0827926472 0.909339428 -0.407734245
vn -0.0827926472 0.909339428 -0.407734245
vn -0.0827926472 0.909339428 -0.407734245
vn -0.146885306 0.973413825 -0.175756171
vn -0.146885306 0.973413825 -0.175756171
vn -0.146885306 0.973413825 -0.175756171
vn -0.146885306 0.973413825 -0.175756171
vn -0.146885306 0.973413825 -0.175756171
vn 0.064815037 0.466474652 0.88215673
vn 0.064815037 0.466474652 0.88215673
vn 0.064815037 0.466474652 0.88215673
vn 0.064815037 0.466474652 0.88215673
vn 0.064815037 0.466474652 0.88215673
vn 0.0713392496 0.996683657 0.0391470939
vn 0.0713392496 0.996683657 0.0391470939
vn 0.0713392496 0.996683657 0.0391470939
vn 0.0713392496 0.996683657 0.0391470939
vn 0.0713392496 0.996683657 0.0391470939
vn 0.0713392496 0.996683657 0.0391470939
vn 0.0713392496 0.996683657 0.0391470939
vn -0.0955763757 0.994961202 0.0302911624
vn -0.0955763757 0.994961202 0.0302911624
vn -0.0955763757 0.994961202 0.0302911624
vn -0.0955763757 0.994961202 0.0302911624
vn -0.0955763757 0.994961202 0.0302911624
vn -0.0955763757 0.994961202 0.0302911624
vn 0.153344318 0.969251931 0.192448273
vn 0.153344318 0.969251931 0.192448273
vn 0.153344318 0.969251931 0.192448273
vn 0.153344318 0.969251931 0.192448273
vn 0.153344318 0.969251931 0.192448273
vn 0.153344318 0.969251931 0.192448273
vn 0.153344318 0.969251931 0.192448273
vn 0.153344318 0.969251931 0.192448273
vn 0.245932043 0.958754659 -0.142502487
vn 0.245932043 0.958754659 -0.142502487
vn 0.245932043 0.958754659 -0.142502487
vn 0.245932043 0.958754659 -0.142502487
vn 0.245932043 0.958754659 -0.142502487
vn 0.245932043 0.958754659 -0.142502487
vn 0.245932043 0.958754659 -0.142502487
vn -0.149359897 0.982243478 0.113531977
vn -0.149359897 0.982243478 0.113531977
vn -0.149359897 0.982243478 0.113531977
vn -0.149359897 0.982243478 0.113531977
vn -0.149359897 0.982243478 0.113531977
vn -0.149359897 0.982243478 0.113531977
vn 0.172982708 0.973725438 -0.148107737
vn 0.172982708 0.973725438 -0.148107737
vn 0.172982708 0.973725438 -0.148107737
vn 0.172982708 0.973725438 -0.148107737
vn 0.172982708 0.973725438 -0.148107737
vn 0.172982708 0.973725438 -0.148107737
vn 0.249629214 0.938058734 0.240272954
vn 0.249629214 0.938058734 0.240272954
vn 0.249629214 0.938058734 0.240272954
vn 0.249629214 0.938058734 0.240272954
vn 0.249629214 0.938058734 0.240272954
vn 0.106781706 0.981856406 -0.156702682
vn 0.106781706 0.981856406 -0.156702682
vn 0.106781706 0.981856406 -0.156702682
vn 0.106781706 0.981856406 -0.156702682
vn 0.106781706 0.981856406 -0.156702682
vn -0.0558516346 0.993245184 -0.101709083
vn -0.0558516346 0.993245184 -0.101709083
vn -0.0558516346 0.993245184 -0.101709083
vn -0.0558516346 0.993245184 -0.101709083
vn -0.0558516346 0.993245184 -0.101709083
vn -0.0558516346 0.993245184 -0.101709083
vn 0.0293236487 0.997483194 -0.0645563975
vn 0.0293236487 0.997483194 -0.0645563975
vn 0.0293236487 0.997483194 -0.0645563975
vn 0.0293236487 0.997483194 -0.0645563975
vn 0.0293236487 0.997483194 -0.0645563975
vn 0.0293236487 0.997483194 -0.0645563975
vn 0.0293236487 0.997483194 -0.0645563975
vn 0.122159123 0.991617382 0.0420960598
vn 0.122159123 0.991617382 0.0420960598
vn 0.122159123 0.991617382 0.0420960598
vn 0.122159123 0.991617382 0.0420960598
vn 0.122159123 0.991617382 0.0420960598
vn -0.0563277751 0.981223524 -0.184465572
vn -0.0563277751 0.981223524 -0.184465572
vn -0.0563277751 0.981223524 -0.184465572
vn -0.0563277751 0.981223524 -0.184465572
vn -0.0563277751 0.981223524 -0.184465572
vn -0.0563277751 0.981223524 -0.184465572
vn 0.0327373296 0.986795962 0.158625394
vn 0.0327373296 0.986795962 0.158625394
vn 0.0327373296 0.986795962 0.158625394
vn 0.0327373296 0.986795962 0.158625394
vn 0.0327373296 0.986795962 0.158625394
vn 0.0327373296 0.986795962 0.158625394
vn 0.171946391 0.983730912 0.0520379692
vn 0.171946391 0.983730912 0.0520379692
vn 0.171946391 0.983730912 0.0520379692
vn 0.171946391 0.983730912 0.0520379692
vn 0.171946391 0.983730912 0.0520379692
vn 0.171946391 0.983730912 0.0520379692
vn -0.0404166318 0.99865818 0.0323808528
vn -0.0404166318 0.99865818 0.0323808528
vn -0.0404166318 0.99865818 0.0323808528
vn -0.0404166318 0.99865818 0.0323808528
vn -0.0404166318 0.99865818 0.0323808528
vn -0.0404166318 0.99865818 0.0323808528
vn -0.0404166318 0.99865818 0.0323808528
vn -0.0267560668 0.992899716 -0.115906447
vn -0.0267560668 0.992899716 -0.115906447
vn -0.0267560668 0.992899716 -0.115906447
vn -0.0267560668 0.992899716 -0.115906447
vn -0.0267560668 0.992899716 -0.115906447
vn -0.0267560668 0.992899716 -0.115906447
vn -0.32466799 0.943767786 -0.0623959452
vn -0.32466799 0.943767786 -0.0623959452
vn -0.32466799 0.943767786 -0.0623959452
vn -0.32466799 0.943767786 -0.0623959452
vn -0.393633842 0.901209891 -0.181309879
vn -0.393633842 0.901209891 -0.181309879
vn -0.393633842 0.901209891 -0.181309879
vn -0.393633842 0.901209891 -0.181309879
vn -0.14235048 0.980142474 0.138047278
vn -0.14235048 0.980142474 0.138047278
vn -0.14235048 0.980142474 0.138047278
vn -0.14235048 0.980142474 0.138047278
vn -0.14235048 0.980142474 0.138047278
vn -0.14235048 0.980142474 0.138047278
vn -0.172086507 0.96640867 0.190893933
vn -0.172086507 0.96640867 0.190893933
vn -0.172086507 0.96640867 0.190893933
vn -0.172086507 0.96640867 0.190893933
vn -0.0947275758 0.936345875 -0.338057876
vn -0.0947275758 0.936345875 -0.338057876
vn -0.0947275758 0.936345875 -0.338057876
vn -0.0947275758 0.936345875 -0.338057876
vn -0.0947275758 0.936345875 -0.338057876
vn -0.0947275758 0.936345875 -0.338057876
vn 0.375410348 0.899264276 -0.224479273
vn 0.375410348 0.899264276 -0.224479273
vn 0.375410348 0.899264276 -0.224479273
vn 0.375410348 0.899264276 -0.224479273
vn 0.375410348 0.899264276 -0.224479273
vn 0.0738975853 0.989233375 0.126318961
vn 0.0738975853 0.989233375 0.126318961
vn 0.0738975853 0.989233375 0.126318961
vn 0.0738975853 0.989233375 0.126318961
vn 0.0738975853 0.989233375 0.126318961
vn -0.111397102 0.962247372 -0.248335853
vn -0.111397102 0.962247372 -0.248335853
vn -0.111397102 0.962247372 -0.248335853
vn -0.111397102 0.962247372 -0.248335853
vn -0.111397102 0.962247372 -0.248335853
vn -0.111397102 0.962247372 -0.248335853
vn 0.15501599 0.98230207 -0.105131812
vn 0.15501599 0.98230207 -0.105131812
vn 0.15501599 0.98230207 -0.105131812
vn 0.15501599 0.98230207 -0.105131812
vn -0.223636463 0.974345863 0.0252401438
vn -0.223636463 0.974345863 0.0252401438
vn -0.223636463 0.974345863 0.0252401438
vn -0.223636463 0.974345863 0.0252401438
vn -0.223636463 0.974345863 0.0252401438
vn -0.223636463 0.974345863 0.0252401438
vn -0.223636463 0.974345863 0.0252401438
vn -0.10874474 0.993101299 0.0438690223
vn -0.10874474 0.993101299 0.0438690223
vn -0.10874474 0.993101299 0.0438690223
vn -0.138556138 0.965661287 0.219773903
vn -0.138556138 0.965661287 0.219773903
vn -0.138556138 0.965661287 0.219773903
vn -0.138556138 0.965661287 0.219773903
vn -0.138556138 0.965661287 0.219773903
vn -0.138556138 0.965661287 0.219773903
vn -0.0298834983 0.963368416 0.266511619
vn -0.0298834983 0.963368416 0.266511619
vn -0.0298834983 0.963368416 0.266511619
vn -0.0298834983 0.963368416 0.266511619
vn -0.055288814 0.942279637 0.330230772
vn -0.055288814 0.942279637 0.330230772
vn -0.055288814 0.942279637 0.330230772
vn -0.055288814 0.942279637 0.330230772
vn 0.231352866 0.943179607 0.238512248
vn 0.231352866 0.943179607 0.238512248
vn 0.231352866 0.943179607 0.238512248
vn 0.231352866 0.943179607 0.238512248
vn 0.231352866 0.943179607 0.238512248
vn 0.231352866 0.943179607 0.238512248
vn 0.0285021961 0.995216668 -0.0934425145
vn 0.0285021961 0.995216668 -0.0934425145
vn 0.0285021961 0.995216668 -0.0934425145
vn 0.0285021961 0.995216668 -0.0934425145
vn 0.0285021961 0.995216668 -0.0934425145
vn 0.0285021961 0.995216668 -0.0934425145
vn 0.0285021961 0.995216668 -0.0934425145
vn -0.0255758502 0.915544391 0.40140292
vn -0.0255758502 0.915544391 0.40140292
vn -0.0255758502 0.915544391 0.40140292
vn -0.101866812 0.983152747 -0.151769489
vn -0.101866812 0.983152747 -0.151769489
vn -0.101866812 0.983152747 -0.151769489
vn -0.101866812 0.983152747 -0.151769489
vn -0.101866812 0.983152747 -0.151769489
vn -0.101866812 0.983152747 -0.151769489
vn 0.137670442 0.98302716 0.121262133
vn 0.137670442 0.98302716 0.121262133
vn 0.137670442 0.98302716 0.121262133
vn 0.137670442 0.98302716 0.121262133
vn 0.137670442 0.98302716 0.121262133
vn 0.137670442 0.98302716 0.121262133
vn -0.35545215 0.887996674 0.291746169
vn -0.35545215 0.887996674 0.291746169
vn -0.35545215 0.887996674 0.291746169
vn -0.35545215 0.887996674 0.291746169
vn -0.35545215 0.887996674 0.291746169
vn -0.192488655 0.979117632 -0.0653965548
vn -0.192488655 0.979117632 -0.0653965548
vn -0.192488655 0.979117632 -0.0653965548
vn -0.192488655 0.979117632 -0.0653965548
vn -0.192488655 0.979117632 -0.0653965548
vn 0.0458673276 0.987662554 -0.149729565
vn 0.0458673276 0.987662554 -0.149729565
vn 0.0458673276 0.987662554 -0.149729565
vn 0.0458673276 0.987662554 -0.149729565
vn 0.0458673276 0.987662554 -0.149729565
vn -0.135293037 0.955142498 -0.263436168
vn -0.135293037 0.955142498 -0.263436168
vn -0.135293037 0.955142498 -0.263436168
vn -0.135293037 0.955142498 -0.263436168
vn -0.135293037 0.955142498 -0.263436168
vn 0.125577912 0.992021978 -0.0110709108
vn 0.125577912 0.992021978 -0.0110709108
vn 0.125577912 0.992021978 -0.0110709108
vn 0.125577912 0.992021978 -0.0110709108
vn 0.125577912 0.992021978 -0.0110709108
vn 0.125577912 0.992021978 -0.0110709108
vn -0.0248177983 0.996483088 0.0800351724
vn -0.0248177983 0.996483088 0.0800351724
vn -0.0248177983 0.996483088 0.0800351724
vn -0.0248177983 0.996483088 0.0800351724
vn -0.0248177983 0.996483088 0.0800351724
vn -0.0248177983 0.996483088 0.0800351724
vn 0.15187037 0.980207086 -0.127001882
vn 0.15187037 0.980207086 -0.127001882
vn 0.15187037 0.980207086 -0.127001882
vn 0.15187037 0.980207086 -0.127001882
vn 0.15187037 0.980207086 -0.127001882
vn 0.0774136484 0.996561825 0.0295273159
vn 0.0774136484 0.996561825 0.0295273159
vn 0.0774136484 0.996561825 0.0295273159
vn 0.0774136484 0.996561825 0.0295273159
vn 0.0774136484 0.996561825 0.0295273159
vn 0.0774136484 0.996561825 0.0295273159
vn 0.0774136484 0.996561825 0.0295273159
vn -0.0261474699 0.998847187 -0.0402586684
vn -0.0261474699 0.998847187 -0.0402586684
vn -0.0261474699 0.998847187 -0.0402586684
vn -0.0261474699 0.998847187 -0.0402586684
vn -0.0261474699 0.998847187 -0.0402586684
vn -0.0261474699 0.998847187 -0.0402586684
g outside
f 3//3 2//2 5//5 4//4 1//1
f 8//8 7//7 11//11 10//10 6//6 9//9
f 13//13 12//12 16//16 15//15 14//14
f 17//17 19//19 20//20 18//18
f 25//25 24//24 22//22 23//23 21//21
f 28//28 27//27 26//26 30//30 29//29
f 35//35 34//34 32//32 31//31 33//33 37//37 36//36
f 43//43 42//42 39//39 38//38 41//41 40//40
f 44//44 45//45 46//46 51//51 50//50 49//49 48//48 47//47
f 53//53 55//55 56//56 54//54 52//52 58//58 57//57
f 62//62 61//61 60//60 64//64 63//63 59//59
f 66//66 65//65 68//68 70//70 69//69 67//67
f 71//71 72//72 75//75 74//74 73//73
f 80//80 79//79 77//77 78//78 76//76
f 82//82 81//81 84//84 83//83 86//86 85//85
f 91//91 90//90 88//88 89//89 93//93 92//92 87//87
f 95//95 94//94 96//96 98//98 97//97
f 100//100 99//99 104//104 103//103 102//102 101//101
f 108//108 106//106 107//107 105//105 110//110 109//109
f 116//116 115//115 113//113 114//114 112//112 111//111
f 117//117 122//122 123//123 119//119 118//118 121//121 120//120
f 126//126 125//125 124//124 129//129 128//128 127//127
f 130//130 132//132 133//133 131//131
f 134//134 136//136 137//137 135//135
f 141//141 140//140 143//143 142//142 139//139 138//138
f 146//146 145//145 144//144 147//147
f 149//149 148//148 153//153 152//152 151//151 150//150
f 154//154 155//155 158//158 157//157 156//156
f 159//159 162//162 163//163 161//161 160//160
f 166//166 168//168 169//169 167//167 165//165 164//164
f 172//172 173//173 171//171 170//170
f 174//174 177//177 178//178 176//176 180//180 179//179 175//175
f 182//182 183//183 181//181
f 186//186 185//185 184//184 187//187 189//189 188//188
f 193//193 192//192 190//190 191//191
f 194//194 196//196 197//197 195//195
f 201//201 200//200 203//203 202//202 199//199 198//198
f 210//210 209//209 204//204 208//208 207//207 206//206 205//205
f 212//212 213//213 211//211
f 217//217 216//216 215//215 214//214 219//219 218//218
f 221//221 224//224 225//225 220//220 223//223 222//222
f 230//230 229//229 228//228 227//227 226//226
f 233//233 232//232 231//231 235//235 234//234
f 237//237 236//236 240//240 239//239 238//238
f 243//243 241//241 242//242 245//245 244//244
f 250//250 246//246 249//249 248//248 247//247 251//251
f 255//255 254//254 252//252 257//257 256//256 253//253
f 258//258 261//261 262//262 260//260 259//259
f 269//269 268//268 266//266 267//267 263//263 265//265 264//264
f 273//273 272//272 271//271 275//275 274//274 270//270
